<svg width="163" height="148" viewBox="0 0 163 148" fill="none" xmlns="http://www.w3.org/2000/svg">
<g id="LOGO">
<g id="LOGO-2">
<g id="GRIS_CLAIR">
<path id="Vector" d="M63.9688 27.6484C74.6888 22.7181 81.1469 34.1207 81.1469 34.1207L81.2473 43.5554C81.2473 43.5554 75.647 51.1744 69.5417 50.6695C74.4089 48.5405 75.2059 45.9978 76.2736 43.5859C76.2432 40.0668 76.447 37.1531 75.4584 34.9358C72.7814 30.8359 69.925 29.1935 63.9688 27.6453V27.6484Z" fill="#ECEAE9"/>
<path id="Vector_2" d="M102.499 24.0137C102.499 24.0137 100.96 21.7843 99.2473 20.3578C98.5294 19.5062 95.0159 18.4356 91.3594 17.5748C98.505 13.2833 104.057 18.7306 104.057 18.7306L106.983 22.4656C106.983 22.4656 108.9 31.6479 105.721 35.6353C102.542 38.765 95.2683 38.2449 95.2683 38.2449C95.2683 38.2449 100.884 36.5569 102.122 34.44C103.019 32.904 103.339 26.0515 102.499 24.0137Z" fill="#ECEAE9"/>
<path id="Vector_3" d="M33.3513 136.945L42.1883 137.474V141.316C42.1883 143.32 41.3092 144.889 39.5539 146.021C37.7987 147.152 35.3529 147.718 32.2166 147.718C30.3975 147.718 28.7852 147.469 27.3798 146.967C25.9744 146.465 24.8489 145.738 24.0032 144.783C23.1575 143.828 22.6526 142.672 22.4913 141.319C22.4366 140.817 22.391 140.154 22.3575 139.329C22.321 138.505 22.3027 137.599 22.3027 136.616C22.3027 135.634 22.321 134.734 22.3575 133.916C22.394 133.1 22.4396 132.44 22.4913 131.939C22.6526 130.567 23.1575 129.402 24.0032 128.447C24.8489 127.492 25.9775 126.759 27.3798 126.248C28.7852 125.737 30.3975 125.482 32.2166 125.482C34.27 125.482 36.0404 125.74 37.528 126.26C39.0125 126.78 40.1623 127.516 40.9715 128.474C41.7807 129.429 42.1883 130.585 42.1883 131.939V134.472L33.3513 135.445V133.192C33.3513 132.69 33.1079 132.44 32.6212 132.44C32.1345 132.44 31.8911 132.69 31.8911 133.192V139.956C31.8911 140.458 32.1345 140.707 32.6212 140.707C33.1079 140.707 33.3513 140.458 33.3513 139.956V136.951V136.945Z" fill="#ECEAE9"/>
<path id="Vector_4" d="M51.8318 125.923V138.837H60.1V147.353H43.3203V125.923H51.8318Z" fill="#ECEAE9"/>
<path id="Vector_5" d="M82.4741 147.353H73.7192L73.4485 144.792H69.6125L69.3418 147.353H60.5869L65.9378 125.923H77.1232L82.4741 147.353ZM70.7989 133.855L70.5008 137.918H72.5541L72.256 133.855H70.7959H70.7989Z" fill="#ECEAE9"/>
<path id="Vector_6" d="M82.6895 125.923H91.4443V139.895C91.4443 139.95 91.4748 140.09 91.5386 140.312C91.6025 140.534 91.8124 140.646 92.1744 140.646C92.5364 140.646 92.7463 140.534 92.8102 140.312C92.8741 140.09 92.9045 139.95 92.9045 139.895V125.923H101.659V140.285C101.659 141.306 101.498 142.265 101.173 143.165C100.847 144.065 100.318 144.862 99.5787 145.558C98.8395 146.255 97.8447 146.802 96.5944 147.201C95.3411 147.599 93.7897 147.8 91.9341 147.8C90.2945 147.8 88.8891 147.596 87.7179 147.189C86.5467 146.781 85.5915 146.225 84.8523 145.519C84.1131 144.813 83.5686 144.016 83.2188 143.125C82.8659 142.234 82.6925 141.306 82.6925 140.342V125.926L82.6895 125.923Z" fill="#ECEAE9"/>
<path id="Vector_7" d="M102.846 125.923H111.114C113.222 125.923 114.959 126.102 116.328 126.464C117.697 126.826 118.783 127.34 119.583 128.009C120.383 128.678 120.973 129.484 121.353 130.43C121.731 131.376 121.971 132.437 122.068 133.618C122.166 134.798 122.208 136.063 122.19 137.416C122.172 138.457 122.126 139.466 122.053 140.449C121.98 141.431 121.779 142.341 121.445 143.177C121.11 144.01 120.556 144.746 119.784 145.376C119.008 146.006 117.919 146.495 116.514 146.836C115.108 147.18 113.289 147.35 111.056 147.35H102.843V125.919L102.846 125.923ZM113.058 139.673V133.66C113.058 133.587 113.027 133.441 112.964 133.228C112.9 133.015 112.69 132.909 112.328 132.909C111.966 132.909 111.756 133.015 111.692 133.228C111.628 133.441 111.598 133.587 111.598 133.66V139.673C111.598 139.728 111.628 139.868 111.692 140.09C111.756 140.312 111.966 140.424 112.328 140.424C112.69 140.424 112.9 140.312 112.964 140.09C113.027 139.868 113.058 139.728 113.058 139.673Z" fill="#ECEAE9"/>
<path id="Vector_8" d="M131.785 138.949V140.09H140.053V147.353H123.273V125.923H139.566V132.185H131.785V133.326H138.836V138.946H131.785V138.949Z" fill="#ECEAE9"/>
<path id="Vector_9" d="M25.7158 122.641L26.0413 111.369C27.5015 111.396 28.7152 111.384 29.6887 111.326C30.6621 111.271 31.3922 110.98 31.8789 110.45C32.3656 109.921 32.609 108.963 32.609 107.57V73.4321L45.7413 79.287V110.326C45.7413 112.774 45.4097 114.794 44.7496 116.378C44.0865 117.966 43.1556 119.21 41.954 120.113C40.7524 121.016 39.3197 121.664 37.6587 122.054C35.9978 122.443 34.1604 122.659 32.1466 122.701C30.1328 122.744 27.9912 122.723 25.7219 122.638L25.7158 122.641Z" fill="#ECEAE9"/>
<path id="Vector_10" d="M60.3698 109.699V111.411H72.7721V122.309H47.6025V79.9166L72.042 86.7417V99.5556H60.3698V101.268H70.9469V109.702H60.3698V109.699Z" fill="#ECEAE9"/>
<path id="Vector_11" d="M106.168 122.306H93.0358L92.6312 118.465H86.8758L86.4712 122.306H73.3389L81.6679 87.0429L98.1434 85.6621L106.168 122.306ZM88.9656 99.7382L88.2143 107.458H91.2958L90.8486 99.7382H88.9656Z" fill="#ECEAE9"/>
<path id="Vector_12" d="M119.057 122.306H107.02V83.9253L121.247 79.5912L123.963 101.852H124.329L124.167 78.6635L136.205 72.5045V122.306H123.072L119.221 107.278H118.856L119.06 122.306H119.057Z" fill="#ECEAE9"/>
<path id="Vector_13" d="M38.7382 66.1995C37.7374 68.0244 37.2355 68.9368 36.2347 70.7587C36.0978 70.3876 36.0278 70.2021 35.8939 69.831C37.6127 70.7922 38.4827 71.2484 40.2379 72.1183C40.0067 72.5866 39.8911 72.8208 39.6599 73.2862C37.5549 72.243 36.5115 71.6894 34.4551 70.5154C35.6171 68.4806 36.1981 67.4617 37.3572 65.4269C37.9078 65.7402 38.1815 65.8953 38.7352 66.1995H38.7382Z" fill="#ECEAE9"/>
<path id="Vector_14" d="M43.3255 71.7927C42.7628 72.5987 42.4799 73.0033 41.911 73.8062C41.7772 73.4382 41.7133 73.2527 41.5855 72.8816C43.3955 73.7423 44.3081 74.1499 46.1485 74.9164C45.9629 75.3604 45.8717 75.5824 45.6861 76.0265C43.4685 75.1019 42.3673 74.6061 40.1953 73.5446C40.8919 72.5805 41.2387 72.0969 41.9262 71.1297C42.2547 69.9891 42.4251 69.4173 42.7658 68.2798C44.7979 69.2713 45.8261 69.7367 47.9007 70.6005C47.7151 71.0445 47.6239 71.2665 47.4383 71.7106C45.677 70.9776 44.8039 70.5883 43.073 69.761C43.432 69.6241 43.6115 69.5542 43.9674 69.4143C43.7088 70.3632 43.5811 70.8377 43.3286 71.7866L43.3255 71.7927ZM46.7721 72.7174C46.6018 73.1219 46.5196 73.3226 46.3493 73.7271C44.6366 73.0093 43.7849 72.6291 42.0996 71.8262C42.2882 71.4308 42.3825 71.2331 42.5711 70.8377C44.2381 71.6315 45.0777 72.0087 46.7721 72.7174Z" fill="#ECEAE9"/>
<path id="Vector_15" d="M47.1225 74.5514C47.7309 74.7977 48.0351 74.9194 48.6435 75.1566C48.607 75.333 48.6313 75.5094 48.7226 75.6889C48.8139 75.8683 48.9629 76.0387 49.1698 76.1938C49.3797 76.3519 49.6382 76.4858 49.9516 76.6013C50.3987 76.7656 50.7729 76.8355 51.071 76.8143C51.3691 76.793 51.5517 76.6774 51.6247 76.4706C51.6794 76.3124 51.649 76.1664 51.5304 76.0265C51.4117 75.8896 51.1623 75.7284 50.7759 75.5429C50.3288 75.33 50.1037 75.2235 49.6595 75.0045C48.8838 74.6274 48.3728 74.229 48.1264 73.8214C47.8769 73.4138 47.8495 72.9789 48.0351 72.5227C48.1811 72.1607 48.4214 71.8992 48.753 71.7349C49.0846 71.5707 49.4831 71.5038 49.9455 71.5281C50.4109 71.5524 50.9189 71.668 51.4726 71.8748C52.0201 72.0786 52.4795 72.328 52.8506 72.6291C53.2217 72.9302 53.4864 73.2587 53.6506 73.6176C53.8149 73.9765 53.8484 74.3385 53.748 74.7065C53.1426 74.5027 52.8415 74.3993 52.2391 74.1894C52.2696 74.0343 52.2422 73.8822 52.157 73.7332C52.0718 73.5842 51.938 73.4412 51.7524 73.3074C51.5699 73.1705 51.3326 73.0519 51.0406 72.9424C50.6512 72.7964 50.3227 72.7325 50.0519 72.7477C49.7812 72.763 49.6078 72.8694 49.5318 73.061C49.474 73.207 49.5013 73.3469 49.6078 73.4838C49.7143 73.6207 49.9394 73.7758 50.2801 73.9491C50.7425 74.1803 50.9767 74.2928 51.4421 74.5179C51.9775 74.7704 52.3912 75.0106 52.6863 75.2448C52.9814 75.479 53.167 75.7223 53.2491 75.9809C53.3282 76.2394 53.3191 76.5253 53.2126 76.8416C53.0848 77.2218 52.8506 77.5138 52.5008 77.7115C52.1509 77.9092 51.719 78.0096 51.2079 78.0065C50.6969 78.0065 50.1341 77.894 49.5287 77.6689C48.899 77.4378 48.3819 77.1488 47.9743 76.8051C47.5666 76.4614 47.2868 76.0934 47.1377 75.7071C46.9887 75.3209 46.9795 74.9316 47.1164 74.5483L47.1225 74.5514Z" fill="#ECEAE9"/>
<path id="Vector_16" d="M61.1035 75.0047C61.6206 77.5535 61.9157 78.8279 62.5758 81.3736C61.8974 81.2215 61.5598 81.1455 60.8814 80.9812C60.3734 78.7031 60.1452 77.5626 59.7437 75.2845C59.9292 75.3332 60.0205 75.3575 60.203 75.4062C58.7307 77.1885 57.9702 78.0644 56.4005 79.7951C55.7313 79.6004 55.3967 79.5 54.7305 79.2962C56.5678 77.4105 57.4591 76.4494 59.1718 74.4907C59.9445 74.7036 60.3308 74.807 61.1035 75.0016V75.0047ZM56.7625 78.6727C56.8933 78.2165 56.9603 77.9884 57.0911 77.5322C58.7763 78.0188 59.625 78.2439 61.3255 78.6545C61.213 79.1168 61.1582 79.348 61.0457 79.8072C59.3239 79.3905 58.466 79.1655 56.7595 78.6697L56.7625 78.6727Z" fill="#ECEAE9"/>
<path id="Vector_17" d="M65.9245 81.3917C65.6477 81.34 65.5108 81.3127 65.2339 81.2579C66.6363 79.4117 67.3116 78.478 68.6136 76.5862C69.2524 76.6926 69.5688 76.7443 70.2107 76.8416C68.7292 78.9859 67.9535 80.0474 66.3382 82.1339C65.6142 82.0031 65.2552 81.9331 64.5343 81.7871C63.8042 79.2505 63.4757 77.9792 62.8916 75.4365C63.5335 75.5855 63.8529 75.6585 64.4978 75.7954C65.0149 78.0339 65.3009 79.1532 65.9275 81.3887L65.9245 81.3917Z" fill="#ECEAE9"/>
<path id="Vector_18" d="M72.1827 80.0748C71.8937 81.0147 71.7507 81.483 71.4526 82.4229C71.2214 82.1126 71.1058 81.9575 70.8777 81.6442C72.8215 81.9119 73.795 82.0214 75.7449 82.1917C75.7023 82.6723 75.681 82.9095 75.6384 83.3901C73.287 83.1833 72.1127 83.0464 69.7734 82.7027C70.1415 81.5713 70.324 81.0055 70.68 79.8741C70.6526 78.6879 70.6434 78.0948 70.6252 76.9056C72.8124 77.228 73.9106 77.3557 76.1099 77.5504C76.0673 78.0309 76.0461 78.2682 76.0035 78.7487C74.1357 78.5845 73.2048 78.478 71.3461 78.2225C71.6412 77.9823 71.7872 77.8606 72.0793 77.6203C72.1158 78.6027 72.134 79.0924 72.1797 80.0748H72.1827ZM75.681 79.9045C75.6415 80.3394 75.6202 80.5584 75.5837 80.9934C73.7676 80.8291 72.858 80.7257 71.048 80.4763C71.1089 80.0444 71.1363 79.8254 71.1971 79.3935C72.9858 79.6399 73.8832 79.7403 75.681 79.9045Z" fill="#ECEAE9"/>
<path id="Vector_19" d="M82.6898 82.7543C82.4829 82.7847 82.3765 82.8 82.1696 82.8304C82.2152 80.8564 82.2396 79.8679 82.2852 77.897C82.8784 77.9092 83.1735 77.9153 83.7667 77.9183C83.7484 80.2603 83.7393 81.4343 83.721 83.7763C82.9027 83.7702 82.4951 83.7641 81.6768 83.7398C80.1619 81.7233 79.4409 80.6983 78.0812 78.63C78.2819 78.6088 78.3823 78.5996 78.5831 78.5753C78.4584 80.5797 78.3975 81.5834 78.2728 83.5877C77.6431 83.5482 77.3298 83.5269 76.7031 83.4782C76.8826 81.1423 76.9739 79.9744 77.1533 77.6385C77.9443 77.6993 78.3397 77.7267 79.1337 77.7693C80.4813 79.7889 81.1901 80.7865 82.6867 82.7543H82.6898Z" fill="#ECEAE9"/>
<path id="Vector_20" d="M84.503 77.9184C87.0066 77.9184 88.2599 77.8758 90.7574 77.7115C90.7909 78.2316 90.8091 78.4932 90.8426 79.0133C88.3086 79.1806 87.0401 79.2232 84.5 79.2232C84.5 78.7 84.5 78.4415 84.5 77.9184H84.503ZM86.8819 78.5358C87.4994 78.5206 87.8067 78.5115 88.4211 78.4841C88.5063 80.5675 88.5489 81.6077 88.6341 83.6881C87.9861 83.7155 87.6606 83.7246 87.0097 83.7429C86.9579 81.6594 86.9306 80.6192 86.8788 78.5358H86.8819Z" fill="#ECEAE9"/>
<path id="Vector_21" d="M93.2305 80.7956C93.2548 81.0815 93.3369 81.3218 93.4769 81.5225C93.6168 81.7202 93.8085 81.8662 94.0488 81.9544C94.2891 82.0426 94.5811 82.07 94.9188 82.0366C95.2625 82.0001 95.5454 81.9119 95.7614 81.775C95.9804 81.6381 96.1356 81.4556 96.2269 81.2336C96.3181 81.0116 96.3485 80.7561 96.312 80.4732C96.1538 79.1775 96.0778 78.5297 95.9196 77.231C96.525 77.158 96.8292 77.1184 97.4315 77.0363C97.614 78.3563 97.7053 79.0194 97.8847 80.3394C97.9578 80.8656 97.8908 81.3431 97.6809 81.7689C97.471 82.1978 97.1425 82.5506 96.6892 82.8273C96.239 83.1041 95.6915 83.2805 95.0496 83.3474C94.4108 83.4144 93.8389 83.3566 93.34 83.1802C92.8411 83.0007 92.4456 82.7239 92.1475 82.3498C91.8524 81.9757 91.6851 81.5225 91.6486 80.9933C91.5513 79.6642 91.5026 78.9981 91.4053 77.6659C92.0167 77.6203 92.3209 77.596 92.9324 77.5412C93.048 78.843 93.1058 79.4908 93.2214 80.7926L93.2305 80.7956Z" fill="#ECEAE9"/>
<path id="Vector_22" d="M99.9952 79.2596C100.92 79.1106 101.382 79.0315 102.304 78.8612C102.593 78.8064 102.812 78.7 102.958 78.5418C103.104 78.3836 103.153 78.192 103.11 77.967C103.068 77.7419 102.949 77.5837 102.757 77.4894C102.566 77.3951 102.328 77.3769 102.042 77.4286C101.048 77.6141 100.546 77.6993 99.548 77.8575C99.7792 77.5259 99.8918 77.3617 100.12 77.0302C100.479 79.1836 100.655 80.2603 101.014 82.4167C100.372 82.5231 100.05 82.5748 99.4051 82.6691C99.0583 80.3515 98.8849 79.1927 98.5381 76.8751C99.9404 76.6652 100.64 76.5466 102.039 76.285C102.487 76.1998 102.891 76.1998 103.259 76.285C103.627 76.3702 103.932 76.5283 104.175 76.7595C104.418 76.9906 104.58 77.2857 104.659 77.6476C104.735 78.0035 104.707 78.338 104.57 78.6483C104.437 78.9585 104.211 79.2231 103.892 79.4451C103.576 79.6641 103.183 79.8192 102.718 79.9074C101.702 80.0991 101.194 80.1873 100.175 80.3515C100.105 79.9135 100.068 79.6945 99.9982 79.2566L99.9952 79.2596ZM101.081 79.6246C101.787 79.5029 102.137 79.439 102.839 79.3052C103.956 80.2085 104.525 80.6526 105.687 81.5255C104.948 81.6837 104.576 81.7597 103.834 81.9057C102.709 81.0085 102.158 80.5522 101.081 79.6246Z" fill="#ECEAE9"/>
<path id="Vector_23" d="M107.652 78.0735C107.719 79.0528 107.749 79.5456 107.807 80.528C107.479 80.3211 107.314 80.2147 106.989 80.0048C108.905 79.5608 109.861 79.3144 111.762 78.776C111.893 79.2384 111.96 79.4695 112.09 79.9318C109.803 80.5827 108.65 80.8717 106.335 81.3857C106.277 80.1995 106.247 79.6064 106.177 78.4202C105.727 77.3222 105.504 76.7687 105.066 75.6676C107.232 75.1871 108.309 74.9164 110.451 74.3081C110.582 74.7704 110.648 75.0015 110.779 75.4639C108.96 75.9809 108.048 76.2151 106.213 76.6379C106.405 76.3094 106.499 76.1421 106.685 75.8136C107.068 76.717 107.263 77.1701 107.655 78.0704L107.652 78.0735ZM110.88 76.6622C110.998 77.0819 111.056 77.2948 111.175 77.7146C109.404 78.2134 108.516 78.4415 106.727 78.8521C106.63 78.4263 106.578 78.2134 106.481 77.7876C108.248 77.38 109.127 77.1519 110.877 76.6622H110.88Z" fill="#ECEAE9"/>
<path id="Vector_24" d="M112.283 77.8849C112.906 77.7024 113.22 77.6081 113.84 77.4165C113.919 77.5777 114.05 77.6993 114.233 77.7845C114.415 77.8696 114.637 77.9092 114.896 77.9031C115.154 77.897 115.443 77.8423 115.76 77.7389C116.213 77.5898 116.548 77.4134 116.767 77.2096C116.986 77.0089 117.059 76.8021 116.986 76.5983C116.931 76.4401 116.815 76.3459 116.639 76.3094C116.463 76.2729 116.164 76.3063 115.748 76.4006C115.264 76.5131 115.024 76.5679 114.54 76.6713C113.703 76.8568 113.059 76.8599 112.614 76.6956C112.17 76.5314 111.878 76.209 111.738 75.7315C111.629 75.3574 111.653 75.0015 111.808 74.67C111.963 74.3354 112.231 74.0343 112.608 73.7667C112.986 73.499 113.454 73.2739 114.014 73.0914C114.567 72.909 115.081 72.8207 115.559 72.8268C116.037 72.8329 116.45 72.9242 116.8 73.1006C117.15 73.28 117.403 73.5416 117.555 73.8914C116.952 74.1103 116.651 74.2168 116.049 74.4236C115.976 74.2837 115.86 74.1803 115.702 74.1164C115.544 74.0526 115.349 74.0252 115.121 74.0343C114.893 74.0434 114.631 74.0951 114.339 74.1894C113.947 74.3172 113.649 74.4723 113.448 74.6517C113.247 74.8312 113.177 75.0228 113.238 75.2205C113.284 75.3695 113.39 75.4638 113.557 75.5064C113.725 75.5459 113.995 75.5307 114.37 75.4517C114.875 75.3452 115.127 75.2905 115.629 75.1749C116.204 75.041 116.679 74.9711 117.056 74.9711C117.43 74.9711 117.731 75.0441 117.953 75.1962C118.175 75.3482 118.346 75.5794 118.461 75.8927C118.598 76.2698 118.595 76.6439 118.443 77.018C118.294 77.3891 118.017 77.7358 117.612 78.0521C117.211 78.3685 116.7 78.63 116.088 78.8308C115.456 79.0406 114.872 79.1349 114.342 79.1197C113.813 79.1045 113.369 78.9889 113.01 78.776C112.651 78.5662 112.408 78.265 112.277 77.8818L112.283 77.8849Z" fill="#ECEAE9"/>
<path id="Vector_25" d="M122.649 69.9283C123.315 69.6363 123.945 69.4842 124.547 69.4781C125.149 69.469 125.682 69.5937 126.153 69.8522C126.622 70.1108 126.99 70.5031 127.245 71.0354C127.501 71.5616 127.58 72.0908 127.479 72.6261C127.379 73.1614 127.12 73.6632 126.698 74.1286C126.275 74.5939 125.709 74.9863 125.003 75.2935C123.826 75.8075 123.236 76.0569 122.046 76.5344C121.173 74.3597 120.738 73.2709 119.865 71.0962C120.985 70.6461 121.541 70.4149 122.649 69.9283ZM123.333 75.3543C122.929 75.2205 122.728 75.1505 122.326 75.0106C123.233 74.6365 123.686 74.4449 124.586 74.0495C124.967 73.8822 125.268 73.6724 125.493 73.423C125.718 73.1736 125.852 72.9029 125.901 72.6139C125.949 72.325 125.907 72.03 125.767 71.7319C125.627 71.4308 125.432 71.2057 125.183 71.0567C124.933 70.9076 124.647 70.8346 124.319 70.8316C123.993 70.8316 123.646 70.9107 123.278 71.0749C122.408 71.4581 121.97 71.6437 121.091 72.0056C121.268 71.6285 121.356 71.4399 121.529 71.0628C122.25 72.7782 122.609 73.6389 123.33 75.3543H123.333Z" fill="#ECEAE9"/>
<path id="Vector_26" d="M129.68 69.8096C129.975 70.7494 130.118 71.2178 130.404 72.1607C130.03 72.039 129.844 71.9782 129.473 71.8565C131.268 70.9502 132.156 70.4726 133.914 69.472C134.152 69.8887 134.273 70.0985 134.51 70.5183C132.393 71.7257 131.319 72.2975 129.147 73.3651C128.813 72.2245 128.642 71.6558 128.296 70.5183C127.593 69.5602 127.246 69.0766 126.556 68.1124C128.585 67.1118 129.589 66.5795 131.569 65.4511C131.806 65.8678 131.928 66.0777 132.165 66.4974C130.483 67.4555 129.631 67.9117 127.915 68.7785C128.028 68.4105 128.083 68.225 128.189 67.8569C128.782 68.6417 129.077 69.034 129.677 69.8126L129.68 69.8096ZM132.548 67.6319C132.764 68.0121 132.871 68.2037 133.087 68.5839C131.447 69.5115 130.62 69.9556 128.95 70.8011C128.752 70.4118 128.655 70.2141 128.457 69.8248C130.109 68.9884 130.927 68.5504 132.548 67.6319Z" fill="#ECEAE9"/>
</g>
<g id="BLEU_FONC&#195;&#137;">
<path id="Vector_27" d="M26.5277 60.828L24.2645 56.9835L19.9539 57.1143C19.884 57.1143 19.8566 57.0231 19.9174 56.9866L23.7625 54.7237L23.6317 50.4139C23.6317 50.3439 23.723 50.3166 23.7595 50.3774L26.0227 54.2219L30.3333 54.0911C30.4032 54.0911 30.4306 54.1823 30.3698 54.2188L26.5247 56.4817L26.6555 60.7915C26.6555 60.8615 26.5642 60.8888 26.5277 60.828Z" fill="#1E0D56"/>
<path id="Vector_28" d="M125.685 45.152L123.507 45.374C123.453 45.3801 123.407 45.4136 123.386 45.4622L122.488 47.4605C122.467 47.5092 122.473 47.5669 122.503 47.6095L123.787 49.3858C123.818 49.4284 123.872 49.4527 123.924 49.4466L126.102 49.2246C126.157 49.2185 126.202 49.185 126.224 49.1364L127.121 47.1381C127.142 47.0894 127.136 47.0316 127.106 46.9891L125.822 45.2128C125.792 45.1702 125.737 45.1459 125.685 45.152Z" fill="#1E0D56"/>
<path id="Vector_29" d="M33.8959 37.229L32.6791 36.4199C32.6334 36.3895 32.5756 36.3865 32.5239 36.4108L31.2128 37.0617C31.1641 37.086 31.1307 37.1347 31.1276 37.1894L31.0364 38.6494C31.0333 38.7041 31.0577 38.7558 31.1064 38.7893L32.3232 39.5983C32.3688 39.6287 32.4266 39.6318 32.4783 39.6074L33.7894 38.9566C33.8381 38.9322 33.8715 38.8836 33.8746 38.8288L33.9658 37.3689C33.9689 37.3141 33.9445 37.2624 33.8959 37.229Z" fill="#1E0D56"/>
<path id="Vector_30" d="M15.02 60.0951L13.9158 59.362C13.8336 59.3073 13.7302 59.3012 13.645 59.3438L12.4556 59.9339C12.3674 59.9764 12.3096 60.0646 12.3035 60.1589L12.2183 61.482C12.2122 61.5793 12.2579 61.6706 12.34 61.7253L13.4442 62.4583C13.5264 62.5131 13.6298 62.5191 13.715 62.4766L14.9044 61.8865C14.9926 61.8439 15.0504 61.7557 15.0565 61.6614L15.1417 60.3384C15.1478 60.241 15.1021 60.1498 15.02 60.0951Z" fill="#1E0D56"/>
<path id="Vector_31" d="M38.7845 48.364L37.5099 48.2393C37.4003 48.2271 37.2908 48.2788 37.2269 48.367L36.4817 49.4103C36.4178 49.5015 36.4056 49.6201 36.4512 49.7205L36.9805 50.8884C37.0262 50.9888 37.1235 51.0588 37.233 51.0709L38.5076 51.1956C38.6171 51.2078 38.7267 51.1561 38.7905 51.0679L39.5358 50.0246C39.5997 49.9334 39.6119 49.8148 39.5662 49.7144L39.0369 48.5465C38.9913 48.4461 38.894 48.3761 38.7845 48.364Z" fill="#1E0D56"/>
<path id="Vector_32" d="M25.0102 72.5408L24.7456 72.0815C24.7213 72.039 24.6757 72.0116 24.627 72.0116H24.0978C24.0491 72.0116 24.0035 72.039 23.9791 72.0815L23.7145 72.5408C23.6902 72.5834 23.6902 72.6351 23.7145 72.6777L23.9791 73.137C24.0035 73.1795 24.0491 73.2069 24.0978 73.2069H24.627C24.6757 73.2069 24.7213 73.1795 24.7456 73.137L25.0102 72.6777C25.0346 72.6351 25.0346 72.5834 25.0102 72.5408Z" fill="#1E0D56"/>
<path id="Vector_33" d="M117.164 40.6506L116.488 40.2005C116.409 40.1488 116.312 40.1427 116.227 40.1853L115.5 40.5472C115.415 40.5898 115.36 40.6719 115.354 40.7662L115.302 41.5783C115.296 41.6726 115.342 41.7608 115.418 41.8125L116.093 42.2626C116.172 42.3143 116.27 42.3204 116.355 42.2778L117.082 41.9159C117.167 41.8733 117.221 41.7912 117.228 41.6969L117.279 40.8848C117.285 40.7905 117.24 40.7023 117.164 40.6506Z" fill="#1E0D56"/>
<path id="Vector_34" d="M18.9159 90.5039L18.4657 90.2059C18.4262 90.1815 18.3775 90.1785 18.338 90.1967L17.8544 90.437C17.8118 90.4583 17.7875 90.4978 17.7844 90.5435L17.751 91.0818C17.751 91.1274 17.7692 91.17 17.8088 91.1974L18.2589 91.4954C18.2984 91.5198 18.3471 91.5228 18.3867 91.5046L18.8703 91.2643C18.9128 91.243 18.9372 91.2035 18.9402 91.1578L18.9737 90.6195C18.9737 90.5739 18.9554 90.5313 18.9159 90.5039Z" fill="#1E0D56"/>
<path id="Vector_35" d="M118.347 58.7628L117.712 58.4526C117.666 58.4313 117.614 58.4343 117.575 58.4617L116.988 58.8571C116.948 58.8845 116.924 58.9331 116.927 58.9818L116.976 59.6874C116.979 59.7361 117.009 59.7787 117.052 59.803L117.687 60.1132C117.733 60.1345 117.785 60.1315 117.824 60.1041L118.411 59.7087C118.451 59.6813 118.475 59.6327 118.472 59.584L118.423 58.8784C118.42 58.8297 118.39 58.7871 118.347 58.7628Z" fill="#1E0D56"/>
<path id="Vector_36" d="M5.75387 29.5035L5.55313 29.1538C5.5288 29.1112 5.48317 29.0838 5.43451 29.0838H5.02999C4.98133 29.0838 4.9357 29.1112 4.91137 29.1538L4.71063 29.5035C4.6863 29.5461 4.6863 29.5978 4.71063 29.6404L4.91137 29.9902C4.9357 30.0328 4.98133 30.0601 5.02999 30.0601H5.43451C5.48317 30.0601 5.5288 30.0328 5.55313 29.9902L5.75387 29.6404C5.7782 29.5978 5.7782 29.5461 5.75387 29.5035Z" fill="#1E0D56"/>
<path id="Vector_37" d="M119.725 29.905L119.281 29.1355C119.226 29.0382 119.123 28.9804 119.01 28.9804H118.122C118.01 28.9804 117.909 29.0412 117.851 29.1355L117.407 29.905C117.353 30.0024 117.353 30.121 117.407 30.2153L117.851 30.9848C117.906 31.0821 118.01 31.1399 118.122 31.1399H119.01C119.123 31.1399 119.223 31.079 119.281 30.9848L119.725 30.2153C119.78 30.1179 119.78 29.9993 119.725 29.905Z" fill="#1E0D56"/>
<path id="Vector_38" d="M27.4799 81.787L27.2153 81.3278C27.191 81.2852 27.1454 81.2578 27.0967 81.2578H26.5675C26.5188 81.2578 26.4732 81.2852 26.4489 81.3278L26.1843 81.787C26.1599 81.8296 26.1599 81.8813 26.1843 81.9239L26.4489 82.3832C26.4732 82.4258 26.5188 82.4531 26.5675 82.4531H27.0967C27.1454 82.4531 27.191 82.4258 27.2153 82.3832L27.4799 81.9239C27.5043 81.8813 27.5043 81.8296 27.4799 81.787Z" fill="#1E0D56"/>
<path id="Vector_39" d="M56.208 64.7333L55.8431 64.5568C55.7974 64.5356 55.7457 64.5386 55.7062 64.566L55.3716 64.791C55.3321 64.8184 55.3078 64.8671 55.3108 64.9157L55.3382 65.3203C55.3412 65.3689 55.3716 65.4115 55.4142 65.4358L55.7792 65.6122C55.8248 65.6335 55.8765 65.6305 55.9161 65.6031L56.2506 65.3781C56.2902 65.3507 56.3145 65.302 56.3115 65.2534L56.2841 64.8488C56.281 64.8002 56.2506 64.7576 56.208 64.7333Z" fill="#1E0D56"/>
<path id="Vector_40" d="M13.9064 40.6871L11.4789 40.9334C11.4241 40.9395 11.3785 40.973 11.3572 41.0217L10.3564 43.248C10.3351 43.2967 10.3411 43.3545 10.3716 43.3971L11.7983 45.374C11.8287 45.4166 11.8834 45.441 11.9352 45.4349L14.3627 45.1885C14.4174 45.1824 14.4631 45.149 14.4844 45.1003L15.4852 42.8739C15.5065 42.8253 15.5004 42.7675 15.47 42.7249L14.0433 40.7479C14.0128 40.7053 13.9581 40.681 13.9064 40.6871Z" fill="#1E0D56"/>
<path id="Vector_41" d="M23.6646 30.8449L23.1141 30.5772C23.0685 30.5559 23.0168 30.559 22.9772 30.5863L22.4693 30.93C22.4298 30.9574 22.4054 31.0061 22.4085 31.0547L22.451 31.6661C22.4541 31.7147 22.4845 31.7573 22.5271 31.7816L23.0776 32.0493C23.1232 32.0706 23.1749 32.0675 23.2145 32.0402L23.7224 31.6965C23.7619 31.6691 23.7863 31.6204 23.7832 31.5718L23.7406 30.9604C23.7376 30.9118 23.7072 30.8692 23.6646 30.8449Z" fill="#1E0D56"/>
<path id="Vector_42" d="M9.95201 78.5355L9.50186 78.2375C9.46232 78.2131 9.41366 78.2101 9.37412 78.2283L8.89052 78.4686C8.84794 78.4899 8.82361 78.5295 8.82057 78.5751L8.78711 79.1134C8.78711 79.1591 8.80536 79.2016 8.8449 79.229L9.29504 79.5271C9.33458 79.5514 9.38324 79.5544 9.42278 79.5362L9.90638 79.2959C9.94897 79.2746 9.9733 79.2351 9.97634 79.1895L10.0098 78.6511C10.0098 78.6055 9.99155 78.5629 9.95201 78.5355Z" fill="#1E0D56"/>
<path id="Vector_43" d="M37.3872 25.8264L37.1226 25.3671C37.0982 25.3245 37.0526 25.2971 37.0039 25.2971H36.4747C36.4261 25.2971 36.3804 25.3245 36.3561 25.3671L36.0915 25.8264C36.0672 25.869 36.0672 25.9207 36.0915 25.9632L36.3561 26.4225C36.3804 26.4651 36.4261 26.4925 36.4747 26.4925H37.0039C37.0526 26.4925 37.0982 26.4651 37.1226 26.4225L37.3872 25.9632C37.4115 25.9207 37.4115 25.869 37.3872 25.8264Z" fill="#1E0D56"/>
<path id="Vector_44" d="M46.9821 57.8322L46.538 57.0627C46.4832 56.9654 46.3798 56.9076 46.2673 56.9076H45.379C45.2664 56.9076 45.166 56.9684 45.1082 57.0627L44.6641 57.8322C44.6094 57.9295 44.6094 58.0482 44.6641 58.1424L45.1082 58.9119C45.163 59.0093 45.2664 59.0671 45.379 59.0671H46.2673C46.3798 59.0671 46.4802 59.0062 46.538 58.9119L46.9821 58.1424C47.0369 58.0451 47.0369 57.9265 46.9821 57.8322Z" fill="#1E0D56"/>
<path id="Vector_45" d="M130.749 36.4048L131.525 33.2051L129.177 31.0608C129.137 31.0244 129.17 30.9635 129.222 30.9757L132.422 31.7513L134.567 29.4032C134.603 29.3637 134.664 29.3971 134.652 29.4488L133.876 32.6485L136.225 34.7928C136.264 34.8293 136.231 34.8901 136.179 34.8779L132.979 34.1024L130.834 36.4504C130.798 36.4899 130.737 36.4565 130.749 36.4048Z" fill="#1E0D56"/>
<path id="Vector_46" d="M142.285 43.61L141.734 43.3423C141.689 43.321 141.637 43.3241 141.597 43.3514L141.089 43.6951C141.05 43.7225 141.026 43.7712 141.029 43.8198L141.071 44.4312C141.074 44.4798 141.105 44.5224 141.147 44.5468L141.698 44.8144C141.743 44.8357 141.795 44.8327 141.835 44.8053L142.343 44.4616C142.382 44.4342 142.406 44.3856 142.403 44.3369L142.361 43.7255C142.358 43.6769 142.327 43.6343 142.285 43.61Z" fill="#1E0D56"/>
<path id="Vector_47" d="M132.453 53.4342L132.188 52.9749C132.164 52.9323 132.118 52.905 132.069 52.905H131.54C131.491 52.905 131.446 52.9323 131.422 52.9749L131.157 53.4342C131.133 53.4768 131.133 53.5285 131.157 53.5711L131.422 54.0303C131.446 54.0729 131.491 54.1003 131.54 54.1003H132.069C132.118 54.1003 132.164 54.0729 132.188 54.0303L132.453 53.5711C132.477 53.5285 132.477 53.4768 132.453 53.4342Z" fill="#1E0D56"/>
<path id="Vector_48" d="M148.713 30.7202L146.979 30.8966C146.924 30.9027 146.879 30.9361 146.857 30.9848L146.142 32.5755C146.121 32.6241 146.127 32.6819 146.158 32.7245L147.177 34.1388C147.207 34.1814 147.262 34.2057 147.314 34.1996L149.048 34.0232C149.102 34.0172 149.148 33.9837 149.169 33.935L149.884 32.3443C149.905 32.2957 149.899 32.2379 149.869 32.1953L148.85 30.781C148.819 30.7384 148.765 30.7141 148.713 30.7202Z" fill="#1E0D56"/>
<path id="Vector_49" d="M128.754 16.562L128.304 16.2639C128.264 16.2396 128.215 16.2365 128.176 16.2548L127.692 16.4951C127.65 16.5163 127.625 16.5559 127.622 16.6015L127.589 17.1399C127.589 17.1855 127.607 17.2281 127.647 17.2554L128.097 17.5535C128.136 17.5778 128.185 17.5809 128.225 17.5626L128.708 17.3223C128.751 17.3011 128.775 17.2615 128.778 17.2159L128.812 16.6775C128.812 16.6319 128.793 16.5893 128.754 16.562Z" fill="#1E0D56"/>
<path id="Vector_50" d="M161.911 50.3045L161.546 50.128C161.501 50.1068 161.449 50.1098 161.409 50.1372L161.075 50.3622C161.035 50.3896 161.011 50.4383 161.014 50.4869L161.041 50.8915C161.044 50.9401 161.075 50.9827 161.117 51.007L161.482 51.1834C161.528 51.2047 161.58 51.2017 161.619 51.1743L161.954 50.9493C161.993 50.9219 162.018 50.8732 162.015 50.8246L161.987 50.42C161.984 50.3714 161.954 50.3288 161.911 50.3045Z" fill="#1E0D56"/>
<path id="Vector_51" d="M144.414 62.3579L143.617 61.8287C143.535 61.7739 143.432 61.7679 143.347 61.8104L142.492 62.2363C142.404 62.2788 142.346 62.367 142.34 62.4613L142.279 63.4164C142.273 63.5137 142.318 63.6049 142.401 63.6597L143.198 64.1889C143.28 64.2437 143.383 64.2497 143.468 64.2072L144.323 63.7813C144.411 63.7388 144.469 63.6506 144.475 63.5563L144.536 62.6012C144.542 62.5039 144.496 62.4127 144.414 62.3579Z" fill="#1E0D56"/>
<path id="Vector_52" d="M143.347 90.5039L142.896 90.2059C142.857 90.1815 142.808 90.1785 142.769 90.1967L142.285 90.437C142.242 90.4583 142.218 90.4978 142.215 90.5435L142.182 91.0818C142.182 91.1274 142.2 91.17 142.239 91.1974L142.69 91.4954C142.729 91.5198 142.778 91.5228 142.817 91.5046L143.301 91.2643C143.343 91.243 143.368 91.2035 143.371 91.1578L143.404 90.6195C143.404 90.5739 143.386 90.5313 143.347 90.5039Z" fill="#1E0D56"/>
<path id="Vector_53" d="M150.736 75.1079L150.471 74.6486C150.447 74.606 150.401 74.5787 150.353 74.5787H149.823C149.775 74.5787 149.729 74.606 149.705 74.6486L149.44 75.1079C149.416 75.1505 149.416 75.2022 149.44 75.2448L149.705 75.704C149.729 75.7466 149.775 75.774 149.823 75.774H150.353C150.401 75.774 150.447 75.7466 150.471 75.704L150.736 75.2448C150.76 75.2022 150.76 75.1505 150.736 75.1079Z" fill="#1E0D56"/>
<path id="Vector_54" d="M1.56792 54.9275L1.01741 54.6598C0.971785 54.6386 0.920081 54.6416 0.880541 54.669L0.372609 55.0127C0.333069 55.04 0.308738 55.0887 0.311779 55.1374L0.35436 55.7487C0.357401 55.7974 0.387817 55.8399 0.430398 55.8643L0.98091 56.1319C1.02653 56.1532 1.07824 56.1502 1.11778 56.1228L1.62571 55.7791C1.66525 55.7517 1.68958 55.7031 1.68654 55.6544L1.64396 55.0431C1.64092 54.9944 1.6105 54.9518 1.56792 54.9275Z" fill="#1E0D56"/>
<path id="Vector_55" d="M22.9111 15.0321L22.7104 14.6824C22.686 14.6398 22.6404 14.6124 22.5917 14.6124H22.1872C22.1386 14.6124 22.0929 14.6398 22.0686 14.6824L21.8679 15.0321C21.8435 15.0747 21.8435 15.1264 21.8679 15.169L22.0686 15.5188C22.0929 15.5613 22.1386 15.5887 22.1872 15.5887H22.5917C22.6404 15.5887 22.686 15.5613 22.7104 15.5188L22.9111 15.169C22.9354 15.1264 22.9354 15.0747 22.9111 15.0321Z" fill="#1E0D56"/>
<path id="Skull" d="M108.631 17.669C102.544 5.74935 91.7054 1.75586 91.7054 1.75586C91.7054 1.75586 60.5097 -7.53899 46.3978 19.3084C32.2829 46.1558 57.9514 60.2075 57.9514 60.2075L65.5472 62.2423L72.7416 67.7535C76.0665 70.4787 86.966 70.5 86.966 70.5C86.966 70.5 107.329 66.3788 109.504 59.4928C111.986 51.6275 110.371 45.9611 110.371 45.9611L108.856 42.7341L109.151 39.0052C109.151 39.0052 110.545 21.407 108.634 17.669H108.631ZM85.8191 44.489C85.7766 44.0328 85.953 43.3333 86.3089 41.9311C86.3424 41.7973 86.6131 40.751 87.1607 39.4341C87.5105 38.5946 88.347 38.2357 89.7251 38.914C90.6316 39.3611 91.2461 39.7047 91.2887 39.7291C92.18 40.2309 92.6271 40.4834 92.8309 40.6446C93.0591 40.824 94.793 42.217 94.5466 43.8716C94.4645 44.413 93.4941 45.8547 92.7701 45.9885C91.9974 46.1314 91.672 45.5323 91.1153 45.7634C90.6468 45.9581 90.7928 46.4234 90.227 46.9283C89.4635 47.6066 87.0451 46.9527 86.8717 46.8006C85.956 46.0007 85.8496 44.8571 85.8161 44.4921L85.8191 44.489ZM58.6328 40.9396C58.6328 40.9396 57.5133 29.9993 65.7754 27.2041C74.0375 24.409 80.7846 34.0962 80.7846 34.0962L80.9489 43.166C80.9489 43.166 77.0004 48.4917 72.4465 49.9729C67.8926 51.4541 62.0216 49.2277 58.6328 40.9366V40.9396ZM104.08 46.8614C104.248 47.71 105.641 52.5734 104.889 53.6044C104.613 53.9816 103.983 54.3496 103.779 54.3009C102.742 54.0454 102.882 53.2759 101.96 53.1817C101.4 53.1239 99.6207 54.4256 99.5081 54.6659C99.3804 54.9336 99.1553 55.402 99.2283 55.9738C99.2861 56.4087 99.4716 56.5577 99.3926 56.9136C99.3834 56.9562 98.0084 57.5797 97.9081 57.5341C97.5035 57.3424 96.6122 56.1988 96.1984 56.1836C95.3589 56.1532 93.3238 56.8558 92.7245 57.6344C92.5937 57.8048 92.3016 58.4161 92.3534 59.1643C92.3899 59.6631 92.5693 59.9064 92.4264 60.3262C92.3959 60.4144 90.9388 60.8858 90.9114 60.8676C90.5038 60.6181 89.503 59.3681 89.3479 59.3194C88.2132 58.9697 87.0086 59.432 86.8838 59.4867C86.6222 59.6023 85.6245 59.8061 85.9925 61.6796C86.1598 62.5282 81.4873 62.586 79.799 62.291C78.1168 61.996 76.1456 58.2731 76.1456 58.2731C75.2238 58.3431 73.5051 56.8406 73.4078 56.4787C73.7333 56.2688 78.275 59.0122 81.104 55.0613C81.104 55.0613 81.3626 55.6149 81.8919 56.2901C82.3878 56.9227 82.625 57.2755 83.4068 57.5827C84.6693 58.0785 87.5074 56.5395 87.839 55.9434C88.1463 55.3898 87.3979 54.0485 87.4831 53.5436C87.4953 53.4736 88.4961 52.6616 88.7668 52.7771C89.1958 52.9566 89.1805 53.3976 89.579 53.9512C89.9836 54.5108 90.513 54.7693 90.7472 54.8849C91.3678 55.1891 95.1003 53.7291 95.1794 52.7589C95.2554 51.816 94.5923 51.1621 94.9299 50.2953C94.9817 50.1645 95.9825 49.6991 96.0676 49.7265C96.7643 49.9516 96.7521 50.6876 97.3483 51.2564C97.9689 51.8464 101.352 50.493 101.476 49.9455C101.777 48.6437 100.716 48.1419 100.853 46.5846C100.862 46.4782 103.438 46.7915 104.932 44.6046C105.118 44.8631 104.81 46.098 104.08 46.8644V46.8614ZM105.51 35.1181C102.392 37.9315 97.0776 37.8008 97.0776 37.8008C97.0776 37.8008 91.605 35.3523 89.3631 29.9172C89.3631 29.9172 88.5478 21.2671 93.1686 17.1307C99.3926 15.175 103.676 19.0347 103.676 19.0347L106.404 22.4624C106.404 22.4624 108.576 31.2859 105.51 35.1181Z" fill="#1E0D56"/>
<path id="Vector_56" d="M149.425 50.2405L148.98 49.471C148.926 49.3737 148.822 49.3159 148.71 49.3159H147.821C147.709 49.3159 147.608 49.3768 147.551 49.471L147.106 50.2405C147.052 50.3379 147.052 50.4565 147.106 50.5508L147.551 51.3203C147.605 51.4176 147.709 51.4754 147.821 51.4754H148.71C148.822 51.4754 148.923 51.4146 148.98 51.3203L149.425 50.5508C149.479 50.4534 149.479 50.3348 149.425 50.2405Z" fill="#1E0D56"/>
</g>
</g>
</g>
</svg>
