<svg width="210" height="210" viewBox="0 0 210 210" fill="none" xmlns="http://www.w3.org/2000/svg">
<g id="Frame" clip-path="url(#clip0_156_660)">
<g id="Calque 1">
<g id="Clip path group">
<mask id="mask0_156_660" style="mask-type:luminance" maskUnits="userSpaceOnUse" x="0" y="0" width="210" height="210">
<g id="clippath">
<path id="Vector" d="M172.052 0.00349284L0 37.6611L37.6576 209.713L209.709 172.055L172.052 0.00349284Z" fill="white"/>
</g>
</mask>
<g mask="url(#mask0_156_660)">
<g id="Group">
<path id="Vector_2" fill-rule="evenodd" clip-rule="evenodd" d="M86.0323 18.8309C103.027 29.545 97.9091 29.844 113.539 17.2237C126.389 32.6664 121.435 31.3695 140.197 24.1976C147.646 42.8511 143.336 40.086 163.399 39.0611C164.72 59.1037 161.469 55.1454 180.868 60.3693C175.927 79.8427 174.061 75.0681 190.898 86.0322C180.184 103.027 179.886 97.9123 192.506 113.542C177.063 126.392 178.359 121.435 185.535 140.199C166.879 147.649 169.644 143.339 170.668 163.399C150.625 164.72 154.584 161.469 149.36 180.868C129.886 175.927 134.658 174.062 123.693 190.899C106.699 180.185 111.817 179.886 96.1869 192.506C83.334 177.064 88.2909 178.36 69.5296 185.535C62.0764 166.879 66.39 169.644 46.3302 170.668C45.0081 150.622 48.2564 154.584 28.8611 149.36C33.8701 129.604 36.438 135.163 18.8302 123.693C29.5411 106.7 29.8434 111.817 17.223 96.1869C32.6618 83.3346 31.3689 88.2908 24.1937 69.5295C42.8505 62.0796 40.0821 66.3906 39.0612 46.3302C59.1038 45.0087 55.1448 48.2563 60.3686 28.8578C79.842 33.7984 75.0675 35.6645 86.0323 18.8309Z" fill="#E01318"/>
</g>
</g>
</g>
</g>
<g id="Calque 2">
<g id="Group_2">
<path id="Vector_3" d="M125.111 121.786C118.601 123.211 112.145 120.758 108.152 115.97C107.651 115.371 106.701 115.579 106.496 116.332C104.868 122.351 100.028 127.276 93.5177 128.701C83.8019 130.827 74.2079 124.32 72.738 114.306C71.5076 105.934 76.6746 97.7792 84.7758 95.3252C91.8756 93.1726 99.1046 95.7675 103.344 101.1C102.374 102.859 102.005 104.955 102.468 107.07C102.977 109.395 104.386 111.283 106.246 112.47C106.421 112.579 106.656 112.527 106.769 112.356C107.964 110.503 108.455 108.196 107.946 105.871C107.483 103.756 106.272 102.006 104.656 100.813C106.281 94.2002 111.765 88.8227 119.114 87.8094C127.497 86.6588 135.598 91.9061 137.981 100.026C140.828 109.738 134.83 119.659 125.114 121.785L125.111 121.786Z" fill="white"/>
<path id="Vector_4" d="M136.387 75.7736C136.025 75.5415 135.6 75.4771 135.209 75.5628C134.817 75.6486 134.461 75.8838 134.226 76.2466L132.267 79.3027C123.536 69.9547 110.242 65.314 96.8406 68.2473C83.4388 71.1806 73.2987 80.9505 69.2711 93.091L66.215 91.1324C65.8529 90.9004 65.4282 90.8359 65.0365 90.9217C64.6447 91.0074 64.2891 91.2426 64.0537 91.6055C63.8184 91.9683 63.7572 92.3922 63.843 92.784L68.2397 112.872C72.6657 133.094 92.6458 145.898 112.868 141.472C133.089 137.046 145.894 117.066 141.468 96.8442L137.071 76.7563C136.986 76.3678 136.75 76.0089 136.387 75.7736ZM125.11 121.786C118.6 123.211 112.145 120.758 108.151 115.97C107.651 115.371 106.701 115.579 106.496 116.332C104.868 122.351 100.027 127.276 93.5174 128.701C83.8015 130.827 74.2075 124.32 72.7377 114.306C71.5073 105.934 76.6742 97.7792 84.7755 95.3252C91.8753 93.1726 99.1042 95.7676 103.344 101.1C102.374 102.859 102.005 104.955 102.468 107.07C102.976 109.395 104.385 111.283 106.246 112.47C106.42 112.579 106.655 112.527 106.768 112.356C107.964 110.503 108.455 108.196 107.946 105.871C107.483 103.756 106.272 102.006 104.656 100.813C106.281 94.2002 111.765 88.8227 119.114 87.8094C127.497 86.6588 135.597 91.9061 137.98 100.026C140.828 109.738 134.829 119.659 125.114 121.785L125.11 121.786Z" fill="black"/>
<g id="Group_3">
<path id="Vector_5" d="M86.3519 98.8221C90.1084 98.3694 93.6737 100.825 94.5258 104.594C95.4344 108.62 92.9096 112.621 88.8833 113.53C84.8571 114.438 80.8567 111.917 79.9481 107.891C79.0888 104.09 81.3 100.328 84.9327 99.1533C84.932 99.15 84.9313 99.1467 84.9299 99.1402C79.4149 100.734 76.0246 106.361 77.3078 112.037C78.6382 117.927 84.4967 121.623 90.3842 120.293C96.2783 118.962 99.9712 113.108 98.6401 107.214C97.3676 101.587 91.9649 97.9733 86.3486 98.8228L86.3519 98.8221Z" fill="#18A5D6"/>
<path id="Vector_6" d="M87.5285 99.9467C88.3045 100.413 88.8586 100.928 89.0686 101.919C89.3743 103.347 88.4233 104.77 86.9458 105.1C85.5333 105.399 84.0794 104.461 83.7616 103.057C83.5029 101.905 84.0295 101.123 84.3096 100.699L84.4328 100.511C84.7526 100.034 85.0014 99.6548 84.9319 99.15C81.296 100.326 79.0854 104.09 79.9473 107.887C80.8559 111.914 84.857 114.438 88.8825 113.526C92.908 112.615 95.4336 108.617 94.525 104.591C93.6729 100.822 90.1076 98.3662 86.3511 98.8189C86.3315 98.8232 86.3119 98.8275 86.2923 98.8317C86.4279 99.2639 86.9886 99.6373 87.5285 99.9467Z" fill="#18A5D6"/>
<path id="Vector_7" d="M87.5285 99.9467C88.3045 100.413 88.8586 100.928 89.0686 101.919C89.3743 103.347 88.4233 104.77 86.9458 105.1C85.5333 105.399 84.0794 104.461 83.7616 103.057C83.5029 101.905 84.0295 101.123 84.3096 100.699L84.4328 100.511C84.7526 100.034 85.0014 99.6548 84.9319 99.15C81.296 100.326 79.0854 104.09 79.9473 107.887C80.8559 111.914 84.857 114.438 88.8825 113.526C92.908 112.615 95.4336 108.617 94.525 104.591C93.6729 100.822 90.1076 98.3662 86.3511 98.8189C86.3315 98.8232 86.3119 98.8275 86.2923 98.8317C86.4279 99.2639 86.9886 99.6373 87.5285 99.9467Z" fill="#004E69"/>
</g>
<g id="Group_4">
<path id="Vector_8" d="M120.498 91.3486C120.498 91.3486 120.5 91.3551 120.5 91.3583C124.317 90.8685 127.938 93.374 128.75 97.2093C129.606 101.247 127.026 105.212 122.987 106.065C118.949 106.919 114.984 104.341 114.128 100.304C113.329 96.5271 115.539 92.8102 119.134 91.6505C113.681 93.2273 110.285 98.767 111.481 104.407C112.734 110.318 118.538 114.09 124.446 112.842C130.351 111.59 134.13 105.785 132.878 99.8773C131.668 94.162 126.198 90.4601 120.496 91.3558L120.498 91.3486Z" fill="#F01446"/>
<path id="Vector_9" d="M121.73 92.461C122.503 92.9282 123.06 93.4425 123.27 94.4332C123.576 95.8613 122.625 97.2839 121.147 97.6142C119.735 97.9131 118.281 96.9757 117.963 95.5708C117.705 94.4197 118.231 93.6373 118.512 93.2167L118.638 93.0282C118.961 92.5471 119.212 92.1637 119.134 91.6505C115.539 92.8102 113.329 96.5303 114.127 100.304C114.984 104.341 118.949 106.922 122.987 106.065C127.025 105.209 129.606 101.247 128.75 97.2092C127.937 93.374 124.321 90.871 120.5 91.3583C120.642 91.7858 121.197 92.1533 121.73 92.461Z" fill="#F01446"/>
<path id="Vector_10" d="M121.73 92.461C122.503 92.9282 123.06 93.4425 123.27 94.4332C123.576 95.8613 122.625 97.2839 121.147 97.6142C119.735 97.9131 118.281 96.9757 117.963 95.5708C117.705 94.4197 118.231 93.6373 118.512 93.2167L118.638 93.0282C118.961 92.5471 119.212 92.1637 119.134 91.6505C115.539 92.8102 113.329 96.5303 114.127 100.304C114.984 104.341 118.949 106.922 122.987 106.065C127.025 105.209 129.606 101.247 128.75 97.2092C127.937 93.374 124.321 90.871 120.5 91.3583C120.642 91.7858 121.197 92.1533 121.73 92.461Z" fill="#8B0020"/>
</g>
</g>
<g id="Group_5">
<g id="Group_6">
<path id="Vector_11" d="M43.4735 100.66L48.22 101.917L46.3905 103.265L47.3227 93.7691L50.4171 94.0737L49.2556 105.898L43.1123 104.355L36.7843 104.673L37.9368 92.9326L41.0312 93.2372L40.1079 102.649L38.577 100.969L43.4768 100.659L43.4735 100.66ZM42.7588 93.9093L45.4861 94.1779L44.5746 103.44L41.8473 103.171L42.7588 93.9093Z" fill="white"/>
<path id="Vector_12" d="M51.9823 81.0252L51.8126 82.1571L42.4464 78.6752L43.7616 75.1338L55.511 79.5002L53.8126 84.0731L42.0989 86.9038L42.2656 85.7896L51.8509 89.3502L50.5419 92.8731L38.7926 88.5067L40.5454 83.7919L51.9848 81.0212L51.9823 81.0252Z" fill="white"/>
<path id="Vector_13" d="M63.3058 60.695C64.0706 61.5163 64.5679 62.444 64.8016 63.4808C65.0354 64.5175 64.9892 65.5882 64.667 66.6953C64.3449 67.8024 63.7448 68.8746 62.8668 69.9118C61.9182 71.0329 60.8774 71.8423 59.7495 72.332C58.6217 72.8218 57.484 72.9852 56.3391 72.8185C55.1949 72.6549 54.1224 72.1473 53.1159 71.3002C52.1127 70.4524 51.4336 69.4755 51.0801 68.376C50.7265 67.2765 50.6972 66.1266 50.9935 64.9327C51.2899 63.7389 51.912 62.5798 52.8599 61.4555C53.7379 60.4183 54.6948 59.6478 55.7306 59.1439C56.7671 58.6434 57.8126 58.418 58.8709 58.4703C59.9259 58.5233 60.9272 58.8618 61.8713 59.4865L59.3464 62.4716C58.9078 62.2494 58.4659 62.1375 58.0156 62.1436C57.5654 62.1498 57.1199 62.2713 56.6765 62.512C56.2331 62.7527 55.8089 63.1124 55.3989 63.599C54.94 64.1442 54.6399 64.6957 54.5051 65.252C54.3703 65.8084 54.3965 66.3501 54.5869 66.8763C54.7774 67.4025 55.1282 67.88 55.6368 68.3126C56.1487 68.7445 56.6753 69.009 57.2198 69.1053C57.7644 69.2017 58.3047 69.1382 58.8343 68.9162C59.3639 68.6942 59.8617 68.3116 60.3205 67.7664C60.7306 67.2798 61.0203 66.8058 61.1915 66.3373C61.3626 65.8688 61.4094 65.4104 61.3351 64.9614C61.2607 64.5124 61.0754 64.0877 60.7718 63.6854L63.2967 60.7004L63.3058 60.695Z" fill="white"/>
<path id="Vector_14" d="M67.9918 56.1559L70.1541 60.5646L67.9379 60.0678L75.7209 54.5497L77.5177 57.0849L67.8247 63.9584L64.9628 58.3071L60.5752 53.7354L70.2002 46.911L71.997 49.4462L64.282 54.9152L64.5473 52.6573L67.9918 56.1559ZM72.6218 51.1911L74.206 53.4273L66.6127 58.8115L65.0285 56.5753L72.6218 51.1911Z" fill="white"/>
<path id="Vector_15" d="M97.0282 37.7309L100.043 49.8968L96.4417 50.7912L93.773 40.0206L94.5407 39.9175L92.7943 51.6956L89.0333 52.6282L81.98 43.067L82.7019 42.7858L85.367 53.5402L81.7809 54.4277L78.7658 42.2618L84.5877 40.8199L91.1156 49.9966L89.7366 50.3395L91.1889 39.1869L97.0271 37.7414L97.0282 37.7309Z" fill="white"/>
<path id="Vector_16" d="M108.373 51.0331C106.875 50.9094 105.583 50.525 104.503 49.889C103.422 49.2497 102.607 48.4188 102.064 47.3883C101.517 46.3585 101.298 45.1884 101.408 43.878C101.518 42.5676 101.928 41.4517 102.635 40.527C103.343 39.6024 104.284 38.9141 105.458 38.4655C106.629 38.0143 107.965 37.8518 109.464 37.9787C110.963 38.1057 112.253 38.4835 113.334 39.1228C114.414 39.7621 115.229 40.593 115.773 41.6235C116.317 42.654 116.538 43.8234 116.428 45.1338C116.318 46.4442 115.909 47.5601 115.201 48.4848C114.494 49.4094 113.553 50.0977 112.379 50.5463C111.207 50.9943 109.872 51.16 108.373 51.0331ZM108.662 47.5863C109.405 47.6496 110.056 47.5788 110.616 47.3707C111.177 47.1659 111.62 46.8465 111.945 46.4092C112.27 45.972 112.461 45.4376 112.515 44.8067C112.568 44.1725 112.47 43.6157 112.22 43.1299C111.97 42.6441 111.587 42.2557 111.068 41.9623C110.548 41.6688 109.92 41.4881 109.175 41.4288C108.433 41.3655 107.781 41.4363 107.221 41.6444C106.66 41.8492 106.218 42.1719 105.892 42.6058C105.564 43.0438 105.376 43.5775 105.323 44.2084C105.27 44.8426 105.368 45.3994 105.618 45.8852C105.868 46.371 106.25 46.7594 106.77 47.0528C107.286 47.347 107.917 47.527 108.662 47.5863Z" fill="white"/>
<path id="Vector_17" d="M139.038 47.2704L134.06 58.7738L130.655 57.2988L135.064 47.1174L135.736 47.5005L127.206 55.8096L123.649 54.2685L123.837 42.3869L124.581 42.6002L120.18 52.7665L116.79 51.2984L121.768 39.7982L127.275 42.1818L126.902 53.4368L125.598 52.8737L133.518 44.8831L139.039 47.2736L139.038 47.2704Z" fill="white"/>
<path id="Vector_18" d="M142.272 57.9823L138.535 61.1676L138.469 58.8967L145.743 65.074L143.731 67.4441L134.675 59.7545L139.445 55.5837L142.786 50.203L151.779 57.8379L149.766 60.208L142.555 54.0853L144.808 53.7836L142.269 57.9863L142.272 57.9823ZM148.227 61.2427L146.453 63.3312L139.36 57.306L141.133 55.2175L148.227 61.2427Z" fill="white"/>
<path id="Vector_19" d="M153.582 76.1601L152.751 75.3774L160.944 69.6566L163.106 72.7516L152.83 79.9273L150.035 75.9273L154.372 64.6839L155.194 65.455L146.811 71.3097L144.658 68.2264L154.935 61.0506L157.815 65.1756L153.582 76.1601Z" fill="white"/>
<path id="Vector_20" d="M164.865 81.2718L166.186 84.934L155.986 88.617L154.665 84.9549L164.865 81.2718ZM164.874 76.3296L169.353 88.7293L166.1 89.9032L161.621 77.5035L164.874 76.3296Z" fill="white"/>
</g>
<g id="Group_7">
<path id="Vector_21" d="M59.0416 149.637L62.1436 152.072C62.0007 152.325 61.9541 152.612 62.0104 152.932C62.0666 153.252 62.2182 153.584 62.4683 153.93C62.7184 154.276 63.0642 154.621 63.5024 154.966C64.1056 155.44 64.6335 155.741 65.0815 155.866C65.5295 155.99 65.8669 155.906 66.0918 155.621C66.2494 155.418 66.2825 155.179 66.1909 154.901C66.0994 154.623 65.7823 154.238 65.247 153.746L63.6242 152.24C62.2865 151.021 61.502 149.906 61.27 148.893C61.038 147.88 61.2603 146.942 61.9427 146.074C62.4989 145.364 63.1709 144.933 63.958 144.777C64.7451 144.622 65.6029 144.712 66.5312 145.046C67.4596 145.379 68.4228 145.935 69.4229 146.722C70.3858 147.479 71.1372 148.286 71.6714 149.148C72.2087 150.009 72.5007 150.858 72.5553 151.702C72.6099 152.545 72.4008 153.309 71.9263 154.002L68.8242 151.567C68.9402 151.347 68.975 151.1 68.9262 150.83C68.8767 150.557 68.7345 150.266 68.498 149.952C68.2616 149.638 67.9393 149.322 67.5263 148.998C66.9818 148.573 66.5009 148.299 66.0779 148.179C65.6549 148.06 65.3422 148.132 65.1325 148.393C64.98 148.587 64.9514 148.816 65.0448 149.086C65.1349 149.357 65.418 149.713 65.8947 150.156L67.6761 151.808C68.566 152.623 69.2154 153.37 69.6243 154.05C70.0332 154.731 70.2164 155.364 70.1812 155.954C70.1452 156.54 69.9001 157.124 69.4451 157.702C68.8941 158.404 68.2021 158.854 67.3634 159.054C66.5279 159.254 65.6139 159.205 64.6238 158.901C63.6337 158.598 62.6346 158.05 61.6152 157.254C60.5739 156.435 59.769 155.571 59.2078 154.664C58.6467 153.757 58.3454 152.865 58.3087 151.994C58.2719 151.123 58.5108 150.338 59.0318 149.639L59.0416 149.637Z" fill="white"/>
<path id="Vector_22" d="M75.5682 159.171C75.3474 159.647 75.2459 160.09 75.2645 160.503C75.2832 160.916 75.4179 161.297 75.6778 161.641C75.9351 161.988 76.3206 162.28 76.8382 162.519C77.375 162.768 77.8549 162.882 78.2839 162.856C78.7102 162.835 79.0859 162.691 79.4115 162.428C79.7339 162.166 80.0058 161.798 80.2267 161.323L83.1048 155.106L86.6375 156.741L83.6692 163.155C83.1859 164.199 82.5226 164.997 81.6733 165.556C80.824 166.115 79.8617 166.408 78.7799 166.436C77.6982 166.464 76.5673 166.205 75.3833 165.657C74.2218 165.117 73.3014 164.429 72.6208 163.586C71.9402 162.743 71.5393 161.818 71.4135 160.805C71.2844 159.794 71.4639 158.769 71.9439 157.727L74.9122 151.312L78.4449 152.948L75.5668 159.164L75.5682 159.171Z" fill="white"/>
<path id="Vector_23" d="M89.0629 162.83L93.3546 163.697C93.8342 163.794 94.2309 163.762 94.5431 163.595C94.8561 163.43 95.0528 163.141 95.1364 162.726C95.22 162.311 95.1515 161.966 94.9277 161.694C94.7038 161.421 94.3524 161.238 93.8728 161.141L89.0409 160.167L91.1175 158.744L88.8361 170.047L85.0207 169.278L87.5014 156.994L95.0038 158.509C95.9526 158.702 96.7551 159.039 97.4083 159.522C98.0614 160.006 98.5282 160.591 98.8106 161.272C99.093 161.952 99.1537 162.698 98.9887 163.508C98.8292 164.295 98.4864 164.948 97.9616 165.474C97.4336 166 96.7793 166.355 95.9888 166.542C95.2016 166.728 94.3323 166.727 93.3803 166.535L88.5162 165.554L89.0636 162.834L89.0629 162.83ZM90.4506 164.388L94.6923 165.245L97.7589 171.847L93.385 170.964L90.4506 164.388Z" fill="white"/>
<path id="Vector_24" d="M112.823 165.714C112.909 166.232 113.077 166.654 113.324 166.986C113.571 167.319 113.9 167.555 114.307 167.695C114.714 167.835 115.198 167.859 115.759 167.764C116.34 167.667 116.803 167.487 117.144 167.228C117.484 166.969 117.712 166.638 117.834 166.239C117.952 165.84 117.972 165.384 117.882 164.867L116.749 158.111L120.59 157.466L121.76 164.435C121.949 165.567 121.851 166.605 121.469 167.544C121.086 168.483 120.454 169.271 119.577 169.904C118.699 170.538 117.619 170.962 116.335 171.178C115.071 171.39 113.921 171.341 112.888 171.03C111.852 170.719 110.999 170.181 110.322 169.419C109.646 168.657 109.213 167.712 109.024 166.58L107.854 159.61L111.695 158.965L112.828 165.723L112.823 165.714Z" fill="white"/>
<path id="Vector_25" d="M125.087 155.626L129.157 165.642L126.877 164.694L135.529 161.179L136.833 164.383L126.198 168.705L121.477 157.094L125.084 155.627L125.087 155.626Z" fill="white"/>
<path id="Vector_26" d="M138.998 156.365C139.294 156.797 139.626 157.11 139.99 157.304C140.355 157.502 140.751 157.576 141.179 157.53C141.607 157.484 142.056 157.3 142.523 156.979C143.01 156.643 143.353 156.288 143.551 155.909C143.749 155.531 143.819 155.136 143.759 154.721C143.7 154.31 143.522 153.887 143.226 153.456L139.345 147.808L142.554 145.604L146.559 151.429C147.208 152.375 147.559 153.356 147.606 154.368C147.654 155.384 147.417 156.363 146.888 157.307C146.359 158.251 145.561 159.092 144.484 159.831C143.429 160.558 142.365 160.996 141.294 161.152C140.223 161.307 139.221 161.181 138.287 160.777C137.354 160.372 136.559 159.698 135.911 158.752L131.906 152.926L135.115 150.722L138.995 156.369L138.998 156.365Z" fill="white"/>
<path id="Vector_27" d="M145.834 142.033L153.773 149.372L151.306 149.481L157.645 142.619L160.185 144.968L152.393 153.399L143.19 144.894L145.831 142.034L145.834 142.033Z" fill="white"/>
<path id="Vector_28" d="M158.764 135.614L162.529 138.766L160.301 139.212L165.173 131.009L167.844 132.597L161.776 142.813L156.866 138.808L151.001 136.41L157.026 126.268L159.7 127.856L154.87 135.988L154.197 133.819L158.765 135.618L158.764 135.614ZM160.982 129.196L163.338 130.597L158.586 138.599L156.23 137.199L160.982 129.196Z" fill="white"/>
</g>
</g>
</g>
</g>
<defs>
<clipPath id="clip0_156_660">
<rect width="176.141" height="176.141" fill="white" transform="translate(0 37.6611) rotate(-12.3459)"/>
</clipPath>
</defs>
</svg>
