<?xml version="1.0" encoding="UTF-8"?>
<svg xmlns="http://www.w3.org/2000/svg" xmlns:xlink="http://www.w3.org/1999/xlink" version="1.1" viewBox="0 0 210 210">
  <defs>
    <style>
      .cls-1 {
        fill: none;
      }

      .cls-2 {
        mask: url(#mask);
      }

      .cls-3 {
        fill: #e01318;
        fill-rule: evenodd;
      }

      .cls-4 {
        fill: #004e69;
      }

      .cls-5 {
        fill: #fff;
      }

      .cls-6 {
        fill: #f01446;
      }

      .cls-7 {
        fill: #8b0020;
      }

      .cls-8 {
        fill: #18a5d6;
      }

      .cls-9 {
        clip-path: url(#clippath);
      }
    </style>
    <clipPath id="clippath">
      <rect class="cls-1" x="16.8" y="16.8" width="176.1" height="176.1" transform="translate(-20 24.8) rotate(-12.3)"/>
    </clipPath>
    <mask id="mask" x="0" y="0" width="209.7" height="209.7" maskUnits="userSpaceOnUse">
      <g id="mask0_156_660">
        <g id="clippath-2" data-name="clippath">
          <path id="Vector" class="cls-5" d="M172.1,0L0,37.7l37.7,172.1,172.1-37.7L172.1,0Z"/>
        </g>
      </g>
    </mask>
  </defs>
  <!-- Generator: Adobe Illustrator 28.6.0, SVG Export Plug-In . SVG Version: 1.2.0 Build 709)  -->
  <g>
    <g id="Calque_1">
      <g class="cls-9">
        <g id="Frame">
          <g id="Calque_1-2" data-name="Calque_1">
            <g id="Clip_path_group">
              <g class="cls-2">
                <g id="Group">
                  <path id="Vector_2" class="cls-3" d="M86,18.8c17,10.7,11.9,11,27.5-1.6,12.8,15.4,7.9,14.1,26.7,7,7.4,18.7,3.1,15.9,23.2,14.9,1.3,20-1.9,16.1,17.5,21.3-4.9,19.5-6.8,14.7,10,25.7-10.7,17-11,11.9,1.6,27.5-15.4,12.8-14.1,7.9-7,26.7-18.7,7.4-15.9,3.1-14.9,23.2-20,1.3-16.1-1.9-21.3,17.5-19.5-4.9-14.7-6.8-25.7,10-17-10.7-11.9-11-27.5,1.6-12.9-15.4-7.9-14.1-26.7-7-7.5-18.7-3.1-15.9-23.2-14.9-1.3-20,1.9-16.1-17.5-21.3,5-19.8,7.6-14.2-10-25.7,10.7-17,11-11.9-1.6-27.5,15.4-12.9,14.1-7.9,7-26.7,18.7-7.4,15.9-3.1,14.9-23.2,20-1.3,16.1,1.9,21.3-17.5,19.5,4.9,14.7,6.8,25.7-10Z"/>
                </g>
              </g>
            </g>
          </g>
          <g id="Calque_2">
            <g id="Group_2">
              <path id="Vector_3" class="cls-5" d="M125.1,121.8c-6.5,1.4-13-1-17-5.8-.5-.6-1.5-.4-1.7.4-1.6,6-6.5,10.9-13,12.4-9.7,2.1-19.3-4.4-20.8-14.4-1.2-8.4,3.9-16.5,12-19,7.1-2.2,14.3.4,18.6,5.8-1,1.8-1.3,3.9-.9,6,.5,2.3,1.9,4.2,3.8,5.4.2.1.4,0,.5-.1,1.2-1.9,1.7-4.2,1.2-6.5-.5-2.1-1.7-3.9-3.3-5.1,1.6-6.6,7.1-12,14.5-13,8.4-1.2,16.5,4.1,18.9,12.2,2.8,9.7-3.2,19.6-12.9,21.8h0Z"/>
              <path id="Vector_4" d="M136.4,75.8c-.4-.2-.8-.3-1.2-.2-.4,0-.7.3-1,.7l-2,3.1c-8.7-9.3-22-14-35.4-11.1-13.4,2.9-23.5,12.7-27.6,24.8l-3.1-2c-.4-.2-.8-.3-1.2-.2-.4,0-.7.3-1,.7-.2.4-.3.8-.2,1.2l4.4,20.1c4.4,20.2,24.4,33,44.6,28.6,20.2-4.4,33-24.4,28.6-44.6l-4.4-20.1c0-.4-.3-.7-.7-1ZM125.1,121.8c-6.5,1.4-13-1-17-5.8-.5-.6-1.5-.4-1.7.4-1.6,6-6.5,10.9-13,12.4-9.7,2.1-19.3-4.4-20.8-14.4-1.2-8.4,3.9-16.5,12-19,7.1-2.2,14.3.4,18.6,5.8-1,1.8-1.3,3.9-.9,6,.5,2.3,1.9,4.2,3.8,5.4.2.1.4,0,.5-.1,1.2-1.9,1.7-4.2,1.2-6.5-.5-2.1-1.7-3.9-3.3-5.1,1.6-6.6,7.1-12,14.5-13,8.4-1.2,16.5,4.1,18.9,12.2,2.8,9.7-3.2,19.6-12.9,21.8h0Z"/>
              <g id="Group_3">
                <path id="Vector_5" class="cls-8" d="M86.4,98.8c3.8-.5,7.3,2,8.2,5.8.9,4-1.6,8-5.6,8.9-4,.9-8-1.6-8.9-5.6-.9-3.8,1.4-7.6,5-8.7,0,0,0,0,0,0-5.5,1.6-8.9,7.2-7.6,12.9,1.3,5.9,7.2,9.6,13.1,8.3,5.9-1.3,9.6-7.2,8.3-13.1-1.3-5.6-6.7-9.2-12.3-8.4h0Z"/>
                <path id="Vector_6" class="cls-8" d="M87.5,99.9c.8.5,1.3,1,1.5,2,.3,1.4-.6,2.9-2.1,3.2-1.4.3-2.9-.6-3.2-2-.3-1.2.3-1.9.5-2.4v-.2c.4-.5.7-.9.6-1.4-3.6,1.2-5.8,4.9-5,8.7.9,4,4.9,6.6,8.9,5.6,4-.9,6.6-4.9,5.6-8.9-.9-3.8-4.4-6.2-8.2-5.8,0,0,0,0,0,0,.1.4.7.8,1.2,1.1Z"/>
                <path id="Vector_7" class="cls-4" d="M87.5,99.9c.8.5,1.3,1,1.5,2,.3,1.4-.6,2.9-2.1,3.2-1.4.3-2.9-.6-3.2-2-.3-1.2.3-1.9.5-2.4v-.2c.4-.5.7-.9.6-1.4-3.6,1.2-5.8,4.9-5,8.7.9,4,4.9,6.6,8.9,5.6,4-.9,6.6-4.9,5.6-8.9-.9-3.8-4.4-6.2-8.2-5.8,0,0,0,0,0,0,.1.4.7.8,1.2,1.1Z"/>
              </g>
              <g id="Group_4">
                <path id="Vector_8" class="cls-6" d="M120.5,91.3s0,0,0,0c3.8-.5,7.4,2,8.2,5.9.9,4-1.7,8-5.8,8.9-4,.9-8-1.7-8.9-5.8-.8-3.8,1.4-7.5,5-8.7-5.5,1.6-8.8,7.1-7.7,12.8,1.3,5.9,7.1,9.7,13,8.4,5.9-1.3,9.7-7.1,8.4-13-1.2-5.7-6.7-9.4-12.4-8.5h0Z"/>
                <path id="Vector_9" class="cls-6" d="M121.7,92.5c.8.5,1.3,1,1.5,2,.3,1.4-.6,2.9-2.1,3.2-1.4.3-2.9-.6-3.2-2-.3-1.2.3-1.9.5-2.4v-.2c.4-.5.7-.9.6-1.4-3.6,1.2-5.8,4.9-5,8.7.9,4,4.8,6.6,8.9,5.8,4-.9,6.6-4.8,5.8-8.9-.8-3.8-4.4-6.3-8.2-5.9.1.4.7.8,1.2,1.1Z"/>
                <path id="Vector_10" class="cls-7" d="M121.7,92.5c.8.5,1.3,1,1.5,2,.3,1.4-.6,2.9-2.1,3.2-1.4.3-2.9-.6-3.2-2-.3-1.2.3-1.9.5-2.4v-.2c.4-.5.7-.9.6-1.4-3.6,1.2-5.8,4.9-5,8.7.9,4,4.8,6.6,8.9,5.8,4-.9,6.6-4.8,5.8-8.9-.8-3.8-4.4-6.3-8.2-5.9.1.4.7.8,1.2,1.1Z"/>
              </g>
            </g>
            <g>
              <path class="cls-5" d="M54.4,61.3l2.6,2.1-6,7.4-.2-2.6,8.8,7.2-2.5,3.1-10-8.2,7.4-9ZM52.2,72l6-7.3,2.6,2.1-6,7.3-2.6-2.1Z"/>
              <path class="cls-5" d="M57,59l3-2.6,8.5,9.7-3,2.6-8.5-9.7Z"/>
              <path class="cls-5" d="M78.4,56.3l-.9.8-5.1-8.9,3.4-1.9,6.4,11.2-4.3,2.5-11.1-5.5.9-.8,5.2,9.1-3.4,1.9-6.4-11.2,4.5-2.6,10.9,5.3Z"/>
              <path class="cls-5" d="M90.4,42.1l8.4,11.3-4.2.9-7-9.9,1.1-.2-2.1,11.9-4.2.9,2.8-13.8,5.2-1.2ZM85.7,53.9l-.7-3.1,8.6-1.9.7,3.1-8.6,1.9Z"/>
              <path class="cls-5" d="M111.3,51.2l-1.2.2.6-10.3,3.9.2-.7,12.9-5-.3-6.4-10.6,1.1-.2-.6,10.5-3.9-.2.7-12.9,5.2.3,6.2,10.4Z"/>
              <path class="cls-5" d="M130.8,54.1c-.5,1-1.2,1.9-2.1,2.5-.9.6-2,1-3.1,1.1-1.2,0-2.4,0-3.7-.5-1.4-.5-2.6-1.2-3.5-2.1-.9-.9-1.5-1.9-1.7-3.1-.3-1.2-.2-2.4.3-3.7.4-1.3,1.1-2.3,2.1-3,.9-.7,2-1.2,3.3-1.4s2.6,0,4,.5c1.3.5,2.4,1.1,3.3,1.9.9.8,1.5,1.7,1.8,2.8.3,1,.4,2.1.1,3.3l-3.8-1.3c0-.5,0-1-.2-1.4-.2-.4-.5-.8-.8-1.2s-.9-.6-1.5-.8c-.7-.2-1.3-.3-1.9-.2-.6,0-1.1.3-1.5.7-.4.4-.8.9-1,1.5-.2.6-.3,1.3-.2,1.8.1.6.4,1.1.8,1.5.4.4,1,.8,1.7,1,.6.2,1.2.3,1.7.3.5,0,1-.1,1.4-.4.4-.2.7-.6,1-1l3.8,1.3Z"/>
              <path class="cls-5" d="M136.9,56.9l-3.4,3.7-.3-2.3,8.2,5.4-1.8,2.7-10.2-6.7,4.4-4.8,2.8-5.9,10.1,6.7-1.8,2.7-8.1-5.4,2.3-.6-2.1,4.6ZM143.4,59.5l-1.6,2.3-8-5.3,1.6-2.3,8,5.3ZM144,49.2l3.7,2.4-4.2.8-3.3-2.2,3.8-1.1Z"/>
            </g>
            <g>
              <path class="cls-5" d="M53.3,144.1l3,2.7c-.2.3-.2.5-.2.9,0,.3.2.7.4,1.1.2.4.6.7,1,1.1.6.5,1.1.9,1.6,1,.5.2.8,0,1.1-.2.2-.2.2-.4.1-.7,0-.3-.4-.7-.9-1.2l-1.6-1.6c-1.3-1.3-2-2.5-2.2-3.6-.2-1.1.1-2,.9-2.9.6-.7,1.3-1.1,2.1-1.2.8-.1,1.7,0,2.6.4.9.4,1.9,1,2.9,1.9.9.8,1.7,1.7,2.2,2.6s.8,1.8.8,2.7c0,.9-.3,1.6-.8,2.3l-3-2.7c.1-.2.2-.5.1-.8,0-.3-.2-.6-.4-.9-.2-.3-.5-.7-.9-1-.5-.5-1-.8-1.4-.9-.4-.1-.8,0-1,.2-.2.2-.2.4-.1.7,0,.3.3.7.8,1.1l1.7,1.8c.9.9,1.5,1.7,1.9,2.4.4.7.5,1.4.5,2,0,.6-.4,1.2-.9,1.8-.6.7-1.3,1.1-2.2,1.3-.9.2-1.8,0-2.8-.3-1-.4-2-1-3-1.9-1-.9-1.8-1.8-2.3-2.8-.5-1-.8-1.9-.8-2.8,0-.9.3-1.7.9-2.4Z"/>
              <path class="cls-5" d="M69.7,154.8c-.3.5-.4.9-.4,1.4,0,.4.1.8.4,1.2.2.4.6.7,1.1,1,.5.3,1,.4,1.5.4.4,0,.8-.1,1.2-.4.3-.2.6-.6.9-1.1l3.3-6.2,3.5,1.9-3.4,6.4c-.6,1-1.3,1.8-2.2,2.3-.9.5-1.9.8-3,.7-1.1,0-2.3-.4-3.4-1-1.2-.6-2.1-1.4-2.7-2.3-.6-.9-1-1.9-1.1-2.9,0-1,.2-2.1.7-3.1l3.4-6.4,3.5,1.9-3.3,6.2Z"/>
              <path class="cls-5" d="M83.3,159.4l4.4,1.1c.5.1.9.1,1.2,0,.3-.2.5-.4.7-.9.1-.4,0-.8-.2-1.1s-.6-.5-1.1-.6l-4.9-1.3,2.2-1.3-3,11.5-3.9-1,3.3-12.5,7.6,2c1,.3,1.8.6,2.4,1.2.6.5,1.1,1.2,1.3,1.9.2.7.3,1.5,0,2.3-.2.8-.6,1.4-1.2,2-.6.5-1.3.8-2.1,1-.8.1-1.7,0-2.7-.2l-4.9-1.3.7-2.8ZM84.7,161.1l4.3,1.1,2.8,7-4.4-1.2-2.6-6.9Z"/>
              <path class="cls-5" d="M107.6,163.7c0,.5.2,1,.4,1.3.2.4.6.6,1,.8.4.2.9.2,1.5.2.6,0,1.1-.2,1.5-.5.4-.2.6-.6.8-1,.1-.4.2-.9.1-1.4l-.8-7,4-.4.8,7.2c.1,1.2,0,2.2-.5,3.2-.4.9-1.1,1.7-2.1,2.3-.9.6-2.1,1-3.4,1.1-1.3.1-2.5,0-3.5-.4-1-.4-1.9-1-2.5-1.8-.6-.8-1-1.8-1.2-3l-.8-7.2,4-.4.8,7Z"/>
              <path class="cls-5" d="M120.7,154.1l3.6,10.5-2.3-1.1,9.1-3.1,1.1,3.4-11.2,3.8-4.2-12.2,3.8-1.3Z"/>
              <path class="cls-5" d="M135,155.7c.3.5.6.8,1,1,.4.2.8.3,1.2.3.4,0,.9-.2,1.4-.5.5-.3.9-.7,1.1-1,.2-.4.3-.8.3-1.2,0-.4-.2-.9-.5-1.3l-3.6-6,3.4-2.1,3.8,6.2c.6,1,.9,2,.9,3.1,0,1-.3,2-.9,3-.6.9-1.5,1.8-2.6,2.4-1.1.7-2.2,1.1-3.4,1.2-1.1,0-2.1,0-3.1-.6-.9-.5-1.7-1.2-2.3-2.2l-3.8-6.2,3.4-2.1,3.6,6Z"/>
              <path class="cls-5" d="M142.8,141.4l7.7,8h-2.5s6.9-6.7,6.9-6.7l2.5,2.6-8.5,8.2-8.9-9.3,2.9-2.8Z"/>
              <path class="cls-5" d="M156.5,135.5l3.7,3.5-2.3.3,5.5-8.1,2.7,1.8-6.8,10.1-4.8-4.4-5.9-2.8,6.8-10.1,2.7,1.8-5.4,8.1-.6-2.3,4.6,2.1ZM159.1,129.1l2.3,1.6-5.3,7.9-2.3-1.6,5.3-7.9Z"/>
              <path class="cls-5" d="M157.1,121.4l1.5-3.8,7.3,3.6-1,2.6-7.8-2.4ZM170,124.3c-.2.6-.6,1-1.1,1.2-.5.2-1,.2-1.5,0-.6-.2-.9-.6-1.1-1.1-.2-.5-.2-1,0-1.6.2-.6.6-1,1.1-1.2.5-.2,1-.2,1.6,0,.5.2.9.6,1.1,1.1.2.5.2,1,0,1.6Z"/>
            </g>
          </g>
        </g>
      </g>
    </g>
  </g>
</svg>